<mxfile host="app.diagrams.net" agent="Mozilla/5.0 (X11; Linux x86_64; rv:136.0) Gecko/20100101 Firefox/136.0" version="26.1.1">
  <diagram name="Page-1" id="Lu-ZUfeNsjvwTUCqvgly">
    <mxGraphModel dx="6898" dy="3374" grid="1" gridSize="10" guides="1" tooltips="1" connect="1" arrows="1" fold="1" page="1" pageScale="1" pageWidth="1169" pageHeight="827" math="0" shadow="0">
      <root>
        <mxCell id="0" />
        <mxCell id="1" parent="0" />
        <mxCell id="aWQ-_HhEZBTli_81KbPr-52" value="main" style="rounded=0;whiteSpace=wrap;html=1;" vertex="1" parent="1">
          <mxGeometry x="10" y="10" width="120" height="60" as="geometry" />
        </mxCell>
        <mxCell id="aWQ-_HhEZBTli_81KbPr-53" value="Application" style="whiteSpace=wrap;html=1;" vertex="1" parent="1">
          <mxGeometry x="10" y="230" width="120" height="60" as="geometry" />
        </mxCell>
        <mxCell id="aWQ-_HhEZBTli_81KbPr-54" value="Simulation Canvas" style="whiteSpace=wrap;html=1;" vertex="1" parent="1">
          <mxGeometry x="-380" y="480" width="120" height="60" as="geometry" />
        </mxCell>
        <mxCell id="aWQ-_HhEZBTli_81KbPr-55" value="Lesson Manager" style="whiteSpace=wrap;html=1;" vertex="1" parent="1">
          <mxGeometry x="390" y="480" width="120" height="60" as="geometry" />
        </mxCell>
        <mxCell id="aWQ-_HhEZBTli_81KbPr-56" value="Engine" style="whiteSpace=wrap;html=1;" vertex="1" parent="1">
          <mxGeometry x="-900" y="860" width="120" height="60" as="geometry" />
        </mxCell>
        <mxCell id="aWQ-_HhEZBTli_81KbPr-57" value="Interaction Manager" style="whiteSpace=wrap;html=1;" vertex="1" parent="1">
          <mxGeometry x="-380" y="680" width="120" height="60" as="geometry" />
        </mxCell>
        <mxCell id="aWQ-_HhEZBTli_81KbPr-58" value="Body Renderer" style="whiteSpace=wrap;html=1;" vertex="1" parent="1">
          <mxGeometry x="-130" y="680" width="120" height="60" as="geometry" />
        </mxCell>
        <mxCell id="aWQ-_HhEZBTli_81KbPr-60" value="Simulation Controller" style="whiteSpace=wrap;html=1;" vertex="1" parent="1">
          <mxGeometry x="-630" y="690" width="120" height="60" as="geometry" />
        </mxCell>
        <mxCell id="aWQ-_HhEZBTli_81KbPr-61" value="Update Body" style="whiteSpace=wrap;html=1;" vertex="1" parent="1">
          <mxGeometry x="-1090" y="1040" width="120" height="60" as="geometry" />
        </mxCell>
        <mxCell id="aWQ-_HhEZBTli_81KbPr-63" value="Enforce Bounds" style="whiteSpace=wrap;html=1;" vertex="1" parent="1">
          <mxGeometry x="-700" y="1040" width="120" height="60" as="geometry" />
        </mxCell>
        <mxCell id="aWQ-_HhEZBTli_81KbPr-64" value="Handle Collision" style="whiteSpace=wrap;html=1;" vertex="1" parent="1">
          <mxGeometry x="-800" y="1230" width="120" height="60" as="geometry" />
        </mxCell>
        <mxCell id="aWQ-_HhEZBTli_81KbPr-65" value="SAT" style="rounded=0;whiteSpace=wrap;html=1;" vertex="1" parent="1">
          <mxGeometry x="-990" y="1370" width="120" height="60" as="geometry" />
        </mxCell>
        <mxCell id="aWQ-_HhEZBTli_81KbPr-66" value="Resolve Collision" style="whiteSpace=wrap;html=1;" vertex="1" parent="1">
          <mxGeometry x="-610" y="1370" width="120" height="60" as="geometry" />
        </mxCell>
        <mxCell id="aWQ-_HhEZBTli_81KbPr-67" value="Update Body" style="rounded=0;whiteSpace=wrap;html=1;" vertex="1" parent="1">
          <mxGeometry x="-610" y="1570" width="120" height="60" as="geometry" />
        </mxCell>
        <mxCell id="aWQ-_HhEZBTli_81KbPr-68" value="Handle Collisions" style="rounded=0;whiteSpace=wrap;html=1;" vertex="1" parent="1">
          <mxGeometry x="-900" y="1040" width="120" height="60" as="geometry" />
        </mxCell>
        <mxCell id="aWQ-_HhEZBTli_81KbPr-69" value="Update Properties" style="whiteSpace=wrap;html=1;" vertex="1" parent="1">
          <mxGeometry x="-1140" y="1230" width="120" height="60" as="geometry" />
        </mxCell>
        <mxCell id="aWQ-_HhEZBTli_81KbPr-71" value="Setup Handlers" style="rounded=0;whiteSpace=wrap;html=1;" vertex="1" parent="1">
          <mxGeometry x="-380" y="860" width="120" height="60" as="geometry" />
        </mxCell>
        <mxCell id="aWQ-_HhEZBTli_81KbPr-72" value="Update" style="whiteSpace=wrap;html=1;" vertex="1" parent="1">
          <mxGeometry x="-130" y="850" width="120" height="60" as="geometry" />
        </mxCell>
        <mxCell id="aWQ-_HhEZBTli_81KbPr-73" value="Get Vertices" style="whiteSpace=wrap;html=1;" vertex="1" parent="1">
          <mxGeometry y="1040" width="120" height="60" as="geometry" />
        </mxCell>
        <mxCell id="aWQ-_HhEZBTli_81KbPr-74" value="Redraw" style="whiteSpace=wrap;html=1;" vertex="1" parent="1">
          <mxGeometry x="-260" y="1040" width="120" height="60" as="geometry" />
        </mxCell>
        <mxCell id="aWQ-_HhEZBTli_81KbPr-75" value="" style="endArrow=none;html=1;rounded=0;entryX=0.5;entryY=1;entryDx=0;entryDy=0;exitX=0.5;exitY=0;exitDx=0;exitDy=0;" edge="1" parent="1" source="aWQ-_HhEZBTli_81KbPr-54" target="aWQ-_HhEZBTli_81KbPr-53">
          <mxGeometry width="50" height="50" relative="1" as="geometry">
            <mxPoint x="-110" y="510" as="sourcePoint" />
            <mxPoint x="-60" y="460" as="targetPoint" />
          </mxGeometry>
        </mxCell>
        <mxCell id="aWQ-_HhEZBTli_81KbPr-76" value="" style="endArrow=none;html=1;rounded=0;entryX=0.5;entryY=1;entryDx=0;entryDy=0;exitX=0.5;exitY=0;exitDx=0;exitDy=0;" edge="1" parent="1" source="aWQ-_HhEZBTli_81KbPr-57" target="aWQ-_HhEZBTli_81KbPr-54">
          <mxGeometry width="50" height="50" relative="1" as="geometry">
            <mxPoint x="-240" y="610" as="sourcePoint" />
            <mxPoint x="-190" y="560" as="targetPoint" />
          </mxGeometry>
        </mxCell>
        <mxCell id="aWQ-_HhEZBTli_81KbPr-77" value="" style="endArrow=none;html=1;rounded=0;entryX=0.5;entryY=1;entryDx=0;entryDy=0;exitX=0.5;exitY=0;exitDx=0;exitDy=0;" edge="1" parent="1" source="aWQ-_HhEZBTli_81KbPr-58" target="aWQ-_HhEZBTli_81KbPr-54">
          <mxGeometry width="50" height="50" relative="1" as="geometry">
            <mxPoint x="-240" y="610" as="sourcePoint" />
            <mxPoint x="-190" y="560" as="targetPoint" />
          </mxGeometry>
        </mxCell>
        <mxCell id="aWQ-_HhEZBTli_81KbPr-78" value="" style="endArrow=none;html=1;rounded=0;entryX=0.5;entryY=1;entryDx=0;entryDy=0;exitX=0.5;exitY=0;exitDx=0;exitDy=0;" edge="1" parent="1" source="aWQ-_HhEZBTli_81KbPr-60" target="aWQ-_HhEZBTli_81KbPr-54">
          <mxGeometry width="50" height="50" relative="1" as="geometry">
            <mxPoint x="-240" y="610" as="sourcePoint" />
            <mxPoint x="-190" y="560" as="targetPoint" />
          </mxGeometry>
        </mxCell>
        <mxCell id="aWQ-_HhEZBTli_81KbPr-79" value="" style="endArrow=none;html=1;rounded=0;exitX=0.5;exitY=1;exitDx=0;exitDy=0;entryX=0.5;entryY=0;entryDx=0;entryDy=0;" edge="1" parent="1" source="aWQ-_HhEZBTli_81KbPr-60" target="aWQ-_HhEZBTli_81KbPr-56">
          <mxGeometry width="50" height="50" relative="1" as="geometry">
            <mxPoint x="-110" y="510" as="sourcePoint" />
            <mxPoint x="-60" y="460" as="targetPoint" />
          </mxGeometry>
        </mxCell>
        <mxCell id="aWQ-_HhEZBTli_81KbPr-80" value="" style="endArrow=none;html=1;rounded=0;entryX=0.5;entryY=1;entryDx=0;entryDy=0;exitX=0.5;exitY=0;exitDx=0;exitDy=0;" edge="1" parent="1" source="aWQ-_HhEZBTli_81KbPr-61" target="aWQ-_HhEZBTli_81KbPr-56">
          <mxGeometry width="50" height="50" relative="1" as="geometry">
            <mxPoint x="-410" y="710" as="sourcePoint" />
            <mxPoint x="-360" y="660" as="targetPoint" />
          </mxGeometry>
        </mxCell>
        <mxCell id="aWQ-_HhEZBTli_81KbPr-81" value="" style="endArrow=none;html=1;rounded=0;entryX=0.5;entryY=1;entryDx=0;entryDy=0;exitX=0.5;exitY=0;exitDx=0;exitDy=0;" edge="1" parent="1" source="aWQ-_HhEZBTli_81KbPr-68" target="aWQ-_HhEZBTli_81KbPr-56">
          <mxGeometry width="50" height="50" relative="1" as="geometry">
            <mxPoint x="-410" y="710" as="sourcePoint" />
            <mxPoint x="-360" y="660" as="targetPoint" />
          </mxGeometry>
        </mxCell>
        <mxCell id="aWQ-_HhEZBTli_81KbPr-82" value="" style="endArrow=none;html=1;rounded=0;entryX=0.5;entryY=1;entryDx=0;entryDy=0;exitX=0.5;exitY=0;exitDx=0;exitDy=0;" edge="1" parent="1" source="aWQ-_HhEZBTli_81KbPr-63" target="aWQ-_HhEZBTli_81KbPr-56">
          <mxGeometry width="50" height="50" relative="1" as="geometry">
            <mxPoint x="-410" y="710" as="sourcePoint" />
            <mxPoint x="-360" y="660" as="targetPoint" />
          </mxGeometry>
        </mxCell>
        <mxCell id="aWQ-_HhEZBTli_81KbPr-83" value="" style="endArrow=none;html=1;rounded=0;entryX=0.5;entryY=1;entryDx=0;entryDy=0;exitX=0.5;exitY=0;exitDx=0;exitDy=0;" edge="1" parent="1" source="aWQ-_HhEZBTli_81KbPr-71" target="aWQ-_HhEZBTli_81KbPr-57">
          <mxGeometry width="50" height="50" relative="1" as="geometry">
            <mxPoint x="-240" y="610" as="sourcePoint" />
            <mxPoint x="-190" y="560" as="targetPoint" />
          </mxGeometry>
        </mxCell>
        <mxCell id="aWQ-_HhEZBTli_81KbPr-84" value="" style="endArrow=none;html=1;rounded=0;entryX=0.5;entryY=1;entryDx=0;entryDy=0;exitX=0.5;exitY=0;exitDx=0;exitDy=0;" edge="1" parent="1" source="aWQ-_HhEZBTli_81KbPr-64" target="aWQ-_HhEZBTli_81KbPr-68">
          <mxGeometry width="50" height="50" relative="1" as="geometry">
            <mxPoint x="-410" y="970" as="sourcePoint" />
            <mxPoint x="-360" y="920" as="targetPoint" />
          </mxGeometry>
        </mxCell>
        <mxCell id="aWQ-_HhEZBTli_81KbPr-85" value="" style="endArrow=none;html=1;rounded=0;exitX=0.5;exitY=1;exitDx=0;exitDy=0;entryX=0.5;entryY=0;entryDx=0;entryDy=0;" edge="1" parent="1" source="aWQ-_HhEZBTli_81KbPr-63" target="aWQ-_HhEZBTli_81KbPr-64">
          <mxGeometry width="50" height="50" relative="1" as="geometry">
            <mxPoint x="-410" y="970" as="sourcePoint" />
            <mxPoint x="-360" y="920" as="targetPoint" />
          </mxGeometry>
        </mxCell>
        <mxCell id="aWQ-_HhEZBTli_81KbPr-86" value="" style="endArrow=none;html=1;rounded=0;exitX=0.5;exitY=1;exitDx=0;exitDy=0;entryX=0.5;entryY=0;entryDx=0;entryDy=0;" edge="1" parent="1" source="aWQ-_HhEZBTli_81KbPr-64" target="aWQ-_HhEZBTli_81KbPr-65">
          <mxGeometry width="50" height="50" relative="1" as="geometry">
            <mxPoint x="-410" y="1050" as="sourcePoint" />
            <mxPoint x="-360" y="1000" as="targetPoint" />
          </mxGeometry>
        </mxCell>
        <mxCell id="aWQ-_HhEZBTli_81KbPr-87" value="" style="endArrow=none;html=1;rounded=0;exitX=0.5;exitY=0;exitDx=0;exitDy=0;entryX=0.5;entryY=1;entryDx=0;entryDy=0;" edge="1" parent="1" source="aWQ-_HhEZBTli_81KbPr-66" target="aWQ-_HhEZBTli_81KbPr-64">
          <mxGeometry width="50" height="50" relative="1" as="geometry">
            <mxPoint x="-410" y="1050" as="sourcePoint" />
            <mxPoint x="-360" y="1000" as="targetPoint" />
          </mxGeometry>
        </mxCell>
        <mxCell id="aWQ-_HhEZBTli_81KbPr-88" value="" style="endArrow=none;html=1;rounded=0;exitX=0.5;exitY=1;exitDx=0;exitDy=0;entryX=0.5;entryY=0;entryDx=0;entryDy=0;" edge="1" parent="1" source="aWQ-_HhEZBTli_81KbPr-66" target="aWQ-_HhEZBTli_81KbPr-67">
          <mxGeometry width="50" height="50" relative="1" as="geometry">
            <mxPoint x="-410" y="1050" as="sourcePoint" />
            <mxPoint x="-360" y="1000" as="targetPoint" />
          </mxGeometry>
        </mxCell>
        <mxCell id="aWQ-_HhEZBTli_81KbPr-89" value="" style="endArrow=none;html=1;rounded=0;exitX=0.5;exitY=0;exitDx=0;exitDy=0;entryX=0.5;entryY=1;entryDx=0;entryDy=0;" edge="1" parent="1" target="aWQ-_HhEZBTli_81KbPr-61">
          <mxGeometry width="50" height="50" relative="1" as="geometry">
            <mxPoint x="-1120.000000000001" y="1230" as="sourcePoint" />
            <mxPoint x="-360" y="1000" as="targetPoint" />
          </mxGeometry>
        </mxCell>
        <mxCell id="aWQ-_HhEZBTli_81KbPr-90" value="" style="endArrow=none;html=1;rounded=0;entryX=0.5;entryY=1;entryDx=0;entryDy=0;exitX=0.5;exitY=0;exitDx=0;exitDy=0;" edge="1" parent="1" source="aWQ-_HhEZBTli_81KbPr-72" target="aWQ-_HhEZBTli_81KbPr-58">
          <mxGeometry width="50" height="50" relative="1" as="geometry">
            <mxPoint x="-240" y="820" as="sourcePoint" />
            <mxPoint x="-190" y="770" as="targetPoint" />
          </mxGeometry>
        </mxCell>
        <mxCell id="aWQ-_HhEZBTli_81KbPr-91" value="" style="endArrow=none;html=1;rounded=0;exitX=0.5;exitY=1;exitDx=0;exitDy=0;entryX=0.5;entryY=0;entryDx=0;entryDy=0;" edge="1" parent="1" source="aWQ-_HhEZBTli_81KbPr-72" target="aWQ-_HhEZBTli_81KbPr-74">
          <mxGeometry width="50" height="50" relative="1" as="geometry">
            <mxPoint x="-240" y="820" as="sourcePoint" />
            <mxPoint x="-190" y="770" as="targetPoint" />
          </mxGeometry>
        </mxCell>
        <mxCell id="aWQ-_HhEZBTli_81KbPr-92" value="" style="endArrow=none;html=1;rounded=0;entryX=0.5;entryY=1;entryDx=0;entryDy=0;exitX=0.5;exitY=0;exitDx=0;exitDy=0;" edge="1" parent="1" source="aWQ-_HhEZBTli_81KbPr-73" target="aWQ-_HhEZBTli_81KbPr-72">
          <mxGeometry width="50" height="50" relative="1" as="geometry">
            <mxPoint x="-240" y="820" as="sourcePoint" />
            <mxPoint x="-190" y="770" as="targetPoint" />
          </mxGeometry>
        </mxCell>
        <mxCell id="aWQ-_HhEZBTli_81KbPr-93" value="" style="endArrow=none;html=1;rounded=0;entryX=0.5;entryY=1;entryDx=0;entryDy=0;exitX=0.5;exitY=0;exitDx=0;exitDy=0;" edge="1" parent="1" source="aWQ-_HhEZBTli_81KbPr-55" target="aWQ-_HhEZBTli_81KbPr-53">
          <mxGeometry width="50" height="50" relative="1" as="geometry">
            <mxPoint x="-110" y="480" as="sourcePoint" />
            <mxPoint x="-60" y="430" as="targetPoint" />
          </mxGeometry>
        </mxCell>
        <mxCell id="aWQ-_HhEZBTli_81KbPr-94" value="Parser" style="rounded=0;whiteSpace=wrap;html=1;" vertex="1" parent="1">
          <mxGeometry x="560" y="680" width="120" height="60" as="geometry" />
        </mxCell>
        <mxCell id="aWQ-_HhEZBTli_81KbPr-95" value="" style="endArrow=none;html=1;rounded=0;entryX=0.5;entryY=1;entryDx=0;entryDy=0;exitX=0.5;exitY=0;exitDx=0;exitDy=0;" edge="1" parent="1" source="aWQ-_HhEZBTli_81KbPr-94" target="aWQ-_HhEZBTli_81KbPr-55">
          <mxGeometry width="50" height="50" relative="1" as="geometry">
            <mxPoint x="-110" y="480" as="sourcePoint" />
            <mxPoint x="-60" y="430" as="targetPoint" />
          </mxGeometry>
        </mxCell>
        <mxCell id="aWQ-_HhEZBTli_81KbPr-96" value="Render on Frame" style="rounded=0;whiteSpace=wrap;html=1;" vertex="1" parent="1">
          <mxGeometry x="400" y="850" width="120" height="60" as="geometry" />
        </mxCell>
        <mxCell id="aWQ-_HhEZBTli_81KbPr-97" value="" style="endArrow=none;html=1;rounded=0;exitX=0.5;exitY=0;exitDx=0;exitDy=0;entryX=0.5;entryY=1;entryDx=0;entryDy=0;" edge="1" parent="1" source="aWQ-_HhEZBTli_81KbPr-96" target="aWQ-_HhEZBTli_81KbPr-94">
          <mxGeometry width="50" height="50" relative="1" as="geometry">
            <mxPoint x="-110" y="610" as="sourcePoint" />
            <mxPoint x="-60" y="560" as="targetPoint" />
          </mxGeometry>
        </mxCell>
        <mxCell id="aWQ-_HhEZBTli_81KbPr-98" value="Read File" style="whiteSpace=wrap;html=1;" vertex="1" parent="1">
          <mxGeometry x="730" y="850" width="120" height="60" as="geometry" />
        </mxCell>
        <mxCell id="aWQ-_HhEZBTli_81KbPr-99" value="" style="endArrow=none;html=1;rounded=0;entryX=0.5;entryY=1;entryDx=0;entryDy=0;exitX=0.5;exitY=0;exitDx=0;exitDy=0;" edge="1" parent="1" source="aWQ-_HhEZBTli_81KbPr-98" target="aWQ-_HhEZBTli_81KbPr-94">
          <mxGeometry width="50" height="50" relative="1" as="geometry">
            <mxPoint x="-110" y="610" as="sourcePoint" />
            <mxPoint x="-60" y="560" as="targetPoint" />
          </mxGeometry>
        </mxCell>
        <mxCell id="aWQ-_HhEZBTli_81KbPr-100" value="Parse Markdown" style="rounded=0;whiteSpace=wrap;html=1;" vertex="1" parent="1">
          <mxGeometry x="550" y="1040" width="120" height="60" as="geometry" />
        </mxCell>
        <mxCell id="aWQ-_HhEZBTli_81KbPr-101" value="" style="endArrow=none;html=1;rounded=0;exitX=0.5;exitY=0;exitDx=0;exitDy=0;entryX=0.5;entryY=1;entryDx=0;entryDy=0;" edge="1" parent="1" source="aWQ-_HhEZBTli_81KbPr-100" target="aWQ-_HhEZBTli_81KbPr-98">
          <mxGeometry width="50" height="50" relative="1" as="geometry">
            <mxPoint x="-110" y="610" as="sourcePoint" />
            <mxPoint x="-60" y="560" as="targetPoint" />
          </mxGeometry>
        </mxCell>
        <mxCell id="aWQ-_HhEZBTli_81KbPr-102" value="Render Latex" style="rounded=0;whiteSpace=wrap;html=1;" vertex="1" parent="1">
          <mxGeometry x="890" y="1040" width="120" height="60" as="geometry" />
        </mxCell>
        <mxCell id="aWQ-_HhEZBTli_81KbPr-103" value="" style="endArrow=none;html=1;rounded=0;exitX=0.5;exitY=1;exitDx=0;exitDy=0;entryX=0.5;entryY=0;entryDx=0;entryDy=0;" edge="1" parent="1" source="aWQ-_HhEZBTli_81KbPr-98" target="aWQ-_HhEZBTli_81KbPr-102">
          <mxGeometry width="50" height="50" relative="1" as="geometry">
            <mxPoint x="-110" y="610" as="sourcePoint" />
            <mxPoint x="-60" y="560" as="targetPoint" />
          </mxGeometry>
        </mxCell>
        <mxCell id="aWQ-_HhEZBTli_81KbPr-104" value="Matplotlib" style="rounded=0;whiteSpace=wrap;html=1;" vertex="1" parent="1">
          <mxGeometry x="890" y="1200" width="120" height="60" as="geometry" />
        </mxCell>
        <mxCell id="aWQ-_HhEZBTli_81KbPr-105" value="" style="endArrow=none;html=1;rounded=0;exitX=0.5;exitY=0;exitDx=0;exitDy=0;entryX=0.5;entryY=1;entryDx=0;entryDy=0;" edge="1" parent="1" source="aWQ-_HhEZBTli_81KbPr-104" target="aWQ-_HhEZBTli_81KbPr-102">
          <mxGeometry width="50" height="50" relative="1" as="geometry">
            <mxPoint x="260" y="720" as="sourcePoint" />
            <mxPoint x="310" y="670" as="targetPoint" />
          </mxGeometry>
        </mxCell>
        <mxCell id="aWQ-_HhEZBTli_81KbPr-106" value="" style="endArrow=none;html=1;rounded=0;entryX=0.5;entryY=1;entryDx=0;entryDy=0;exitX=0.5;exitY=0;exitDx=0;exitDy=0;" edge="1" parent="1" source="aWQ-_HhEZBTli_81KbPr-53" target="aWQ-_HhEZBTli_81KbPr-52">
          <mxGeometry width="50" height="50" relative="1" as="geometry">
            <mxPoint x="270" y="450" as="sourcePoint" />
            <mxPoint x="320" y="400" as="targetPoint" />
          </mxGeometry>
        </mxCell>
      </root>
    </mxGraphModel>
  </diagram>
</mxfile>
